<?xml version="1.0" encoding="UTF-8" standalone="no"?>
<!-- Created with Inkscape (http://www.inkscape.org/) -->

<svg
   width="168.97678mm"
   height="26.928343mm"
   viewBox="0 0 168.97678 26.928343"
   version="1.1"
   id="svg5"
   sodipodi:docname="logo.svg"
   inkscape:version="1.1.2 (1:1.1+202202050950+0a00cf5339)"
   xmlns:inkscape="http://www.inkscape.org/namespaces/inkscape"
   xmlns:sodipodi="http://sodipodi.sourceforge.net/DTD/sodipodi-0.dtd"
   xmlns="http://www.w3.org/2000/svg"
   xmlns:svg="http://www.w3.org/2000/svg">
  <sodipodi:namedview
     id="namedview7"
     pagecolor="#505050"
     bordercolor="#eeeeee"
     borderopacity="1"
     inkscape:pageshadow="0"
     inkscape:pageopacity="0"
     inkscape:pagecheckerboard="0"
     inkscape:document-units="mm"
     showgrid="false"
     inkscape:zoom="0.47749719"
     inkscape:cx="383.24833"
     inkscape:cy="183.24715"
     inkscape:window-width="1366"
     inkscape:window-height="693"
     inkscape:window-x="0"
     inkscape:window-y="0"
     inkscape:window-maximized="1"
     inkscape:current-layer="g39139" />
  <defs
     id="defs2">
    <rect
       x="9.5396271"
       y="391.85965"
       width="768.30005"
       height="224.57893"
       id="rect4412" />
  </defs>
  <g
     inkscape:label="Camada 1"
     inkscape:groupmode="layer"
     id="layer1"
     transform="translate(-3.0809483,-100.20748)">
    <g
       id="g39139">
      <g
         aria-label="SQUARE ONE"
         transform="matrix(0.80546631,0,0,0.84167502,-6.2983274,-228.1804)"
         id="text4410"
         style="font-weight:bold;font-size:29.3333px;line-height:1.25;-inkscape-font-specification:'sans-serif, Bold';white-space:pre;shape-inside:url(#rect4412);stroke-width:0.321341">
        <path
           d="m 27.113261,397.10156 v 4.52603 q -1.761717,-0.78776 -3.437496,-1.1888 -1.675779,-0.40104 -3.165361,-0.40104 -1.97656,0 -2.921872,0.54427 -0.945311,0.54427 -0.945311,1.6901 0,0.85938 0.630208,1.34636 0.64453,0.47265 2.320309,0.8164 l 2.348956,0.47266 q 3.566402,0.71614 5.070307,2.17708 1.503904,1.46093 1.503904,4.15364 0,3.53776 -2.105466,5.27083 -2.091143,1.71874 -6.402336,1.71874 -2.033852,0 -4.082027,-0.38671 -2.048175,-0.38672 -4.096349,-1.14584 v -4.65494 q 2.048174,1.08854 3.95312,1.64713 1.919269,0.54428 3.695308,0.54428 1.804686,0 2.76432,-0.60157 0.959634,-0.60156 0.959634,-1.71874 0,-1.00261 -0.658853,-1.54688 -0.644531,-0.54427 -2.592445,-0.97396 l -2.134112,-0.47265 q -3.20833,-0.6875 -4.697911,-2.1914 -1.475259,-1.50391 -1.475259,-4.05339 0,-3.194 2.062497,-4.91275 2.062498,-1.71875 5.929681,-1.71875 1.761717,0 3.623694,0.27214 1.861977,0.25781 3.85286,0.78776 z"
           style="fill:#171717"
           id="path39262" />
        <path
           d="m 43.713503,418.19919 h -0.429687 q -5.285151,0 -8.221345,-2.92187 -2.936195,-2.92187 -2.936195,-8.13541 0,-5.19921 2.921872,-8.14973 2.936194,-2.95052 8.078116,-2.95052 5.199212,0 8.092438,2.92187 2.907549,2.92188 2.907549,8.17838 0,3.60937 -1.546873,6.21614 -1.532551,2.60677 -4.425776,3.92447 l 4.311193,4.8125 H 47.20829 Z m -0.587239,-18.16144 q -2.520831,0 -3.910152,1.86198 -1.389321,1.86198 -1.389321,5.24218 0,3.4375 1.360675,5.27083 1.360676,1.81901 3.938798,1.81901 2.535153,0 3.924474,-1.86198 1.389322,-1.86198 1.389322,-5.22786 0,-3.3802 -1.389322,-5.24218 -1.389321,-1.86198 -3.924474,-1.86198 z"
           style="fill:#171717"
           id="path39259" />
        <path
           d="m 58.294214,396.42838 h 5.514317 v 12.819 q 0,2.64973 0.859374,3.79556 0.873697,1.13151 2.835934,1.13151 1.97656,0 2.835934,-1.13151 0.873697,-1.14583 0.873697,-3.79556 v -12.819 h 5.514317 v 12.819 q 0,4.54036 -2.277341,6.7604 -2.277341,2.22005 -6.946607,2.22005 -4.654942,0 -6.932284,-2.22005 -2.277341,-2.22004 -2.277341,-6.7604 z"
           style="fill:#171717"
           id="path39256" />
        <path
           d="m 94.187403,413.91664 h -8.622386 l -1.360675,3.89583 h -5.542963 l 7.920564,-21.38409 h 6.574211 l 7.920566,21.38409 h -5.542964 z m -7.247387,-3.96744 h 5.858066 l -2.921872,-8.5078 z"
           style="fill:#171717"
           id="path39253" />
        <path
           d="m 111.74728,405.91014 q 1.73307,0 2.47786,-0.64453 0.75911,-0.64453 0.75911,-2.11979 0,-1.46094 -0.75911,-2.09114 -0.74479,-0.63021 -2.47786,-0.63021 h -2.32031 v 5.48567 z m -2.32031,3.80989 v 8.09244 h -5.51432 v -21.38409 h 8.42187 q 4.22525,0 6.18749,1.41797 1.97656,1.41796 1.97656,4.48307 0,2.11978 -1.03125,3.48046 -1.01692,1.36068 -3.07942,2.00521 1.13151,0.25781 2.01953,1.17447 0.90234,0.90235 1.81901,2.75 l 2.99348,6.07291 h -5.87239 l -2.60676,-5.3138 q -0.78776,-1.60416 -1.60417,-2.1914 -0.80208,-0.58724 -2.14843,-0.58724 z"
           style="fill:#171717"
           id="path39250" />
        <path
           d="m 126.49986,396.42838 h 14.8815 v 4.16796 h -9.36718 v 3.98177 h 8.80858 v 4.16796 h -8.80858 v 4.89844 h 9.68228 v 4.16796 h -15.1966 z"
           style="fill:#171717"
           id="path39247" />
        <path
           d="m 166.51805,400.03775 q -2.52083,0 -3.91015,1.86198 -1.38932,1.86198 -1.38932,5.24218 0,3.36588 1.38932,5.22786 1.38932,1.86198 3.91015,1.86198 2.53516,0 3.92448,-1.86198 1.38932,-1.86198 1.38932,-5.22786 0,-3.3802 -1.38932,-5.24218 -1.38932,-1.86198 -3.92448,-1.86198 z m 0,-3.99609 q 5.15625,0 8.07812,2.95052 2.92187,2.95052 2.92187,8.14973 0,5.18489 -2.92187,8.13541 -2.92187,2.95051 -8.07812,2.95051 -5.14192,0 -8.07811,-2.95051 -2.92188,-2.95052 -2.92188,-8.13541 0,-5.19921 2.92188,-8.14973 2.93619,-2.95052 8.07811,-2.95052 z"
           style="fill:#3e3e3e"
           id="path39244" />
        <path
           d="m 181.68601,396.42838 h 6.15884 l 7.77734,14.66665 v -14.66665 h 5.22786 v 21.38409 h -6.15885 l -7.77733,-14.66665 v 14.66665 h -5.22786 z"
           style="fill:#3e3e3e"
           id="path39241" />
        <path
           d="m 206.23545,396.42838 h 14.88149 v 4.16796 h -9.36718 v 3.98177 h 8.80859 v 4.16796 h -8.80859 v 4.89844 h 9.68228 v 4.16796 h -15.19659 z"
           style="fill:#3e3e3e"
           id="path39238" />
      </g>
      <g
         aria-label="|"
         transform="scale(1.0011236,0.99887767)"
         id="text29784"
         style="font-weight:bold;font-size:26.9586px;line-height:1.25;-inkscape-font-specification:'sans-serif, Bold';stroke-width:0.264583">
        <path
           d="m 115.84922,100.32007 v 26.9586 h -2.98808 v -26.9586 z"
           style="fill:#747474"
           id="path39235" />
      </g>
    </g>
  </g>
</svg>
